<svg width="216" height="90" viewBox="0 0 216 90" fill="none" xmlns="http://www.w3.org/2000/svg">
<g clip-path="url(#clip0_388_1204)">
<path d="M120.155 7.41293L123.959 0H126.595V13.6009H123.941V5.17014L120.97 11.1599H119.285L116.351 5.22418V13.6009H113.715V0H116.315L120.155 7.41293Z" fill="white"/>
<path d="M134.239 0H131.468V13.5919H134.239V0Z" fill="white"/>
<path d="M149.392 0V13.6009H147.073L141.748 5.18815V13.6009H139.112V0H141.413L146.756 8.53883V0H149.392Z" fill="white"/>
<path d="M163.196 0V2.35088H159.437V13.6009H156.665V2.35088H152.897V0H163.196Z" fill="white"/>
<path d="M116.677 24.959L119.602 33.8851L122.519 24.959H125.481L120.834 38.2266H118.38L113.715 24.959H116.677Z" fill="white"/>
<path d="M137.101 24.959V27.2468H131.495V30.2282H136.522V32.498H131.495V35.9568H137.101V38.2266H128.787V24.959H137.101Z" fill="white"/>
<path d="M150.959 24.959V38.2266H148.695L143.487 30.012V38.2266H140.914V24.959H143.161L148.378 33.2816V24.959H150.959Z" fill="white"/>
<path d="M164.436 24.959V27.2468H160.759V38.2266H158.051V27.2468H154.374V24.959H164.436Z" fill="white"/>
<path d="M178.095 24.959V32.8493C178.095 36.7764 175.93 38.4067 172.968 38.4067C170.007 38.4067 167.842 36.7674 167.842 32.8673V24.959H170.55V32.8673C170.55 35.1371 171.302 36.1369 172.968 36.1369C174.635 36.1369 175.387 35.1371 175.387 32.8673V24.959H178.095Z" fill="white"/>
<path d="M189.933 38.2268L187.533 33.0116H185.368V38.2268H182.66V24.9502H187.433C190.513 24.9502 192.424 26.3193 192.424 29.0124C192.424 30.8049 191.59 31.9758 190.141 32.5703L192.904 38.2268H189.924H189.933ZM187.189 30.7418C188.792 30.7418 189.725 30.3996 189.725 29.0124C189.725 27.6253 188.792 27.238 187.189 27.238H185.368V30.7418H187.189Z" fill="white"/>
<path d="M204.85 24.959V27.2468H199.235V30.2282H204.262V32.498H199.235V35.9568H204.85V38.2266H196.527V24.959H204.85Z" fill="white"/>
<path d="M116.441 58.5735V63.2752H113.724V49.9355H118.525C121.613 49.9355 123.542 51.3497 123.542 54.205C123.542 57.0602 121.64 58.5735 118.525 58.5735H116.441ZM118.135 56.2946C120.019 56.2946 120.816 55.6371 120.816 54.205C120.816 52.9259 120.019 52.2324 118.135 52.2324H116.441V56.2946H118.135Z" fill="white"/>
<path d="M124.774 63.2664L129.439 49.9268H132.047L136.712 63.2664H133.813L132.998 60.7354H128.506L127.691 63.2664H124.774ZM129.23 58.4566H132.265L130.752 53.7548L129.24 58.4566H129.23Z" fill="white"/>
<path d="M147.227 63.2664L144.818 58.0242H142.644V63.2664H139.927V49.9268H144.728C147.816 49.9268 149.745 51.2959 149.745 54.007C149.745 55.8085 148.912 56.9884 147.454 57.5829L150.234 63.2664H147.237H147.227ZM144.465 55.7454C146.077 55.7454 147.01 55.3941 147.01 54.007C147.01 52.6199 146.077 52.2326 144.465 52.2326H142.635V55.7544H144.465V55.7454Z" fill="white"/>
<path d="M162.607 49.9355V52.2324H158.911V63.2752H156.185V52.2324H152.499V49.9355H162.607Z" fill="white"/>
<path d="M176.111 49.9355V63.2752H173.838L168.612 55.0156V63.2752H166.021V49.9355H168.277L173.53 58.3032V49.9355H176.111Z" fill="white"/>
<path d="M189.072 49.9355V52.2324H183.439V55.2318H188.493V57.5106H183.439V60.9874H189.072V63.2752H180.722V49.9355H189.072Z" fill="white"/>
<path d="M200.213 63.2664L197.804 58.0242H195.63V63.2664H192.913V49.9268H197.713C200.802 49.9268 202.731 51.2959 202.731 54.007C202.731 55.8085 201.898 56.9884 200.439 57.5829L203.22 63.2664H200.222H200.213ZM197.451 55.7454C199.063 55.7454 199.996 55.3941 199.996 54.007C199.996 52.6199 199.063 52.2326 197.451 52.2326H195.621V55.7544H197.451V55.7454Z" fill="white"/>
<path d="M213.817 53.3943C213.237 52.4846 212.531 52.0433 211.172 52.0433C209.95 52.0433 209.288 52.6017 209.288 53.5114C209.288 54.5563 210.14 55.0156 211.933 55.466C214.732 56.1595 215.991 57.2044 215.991 59.5643C215.991 61.753 214.515 63.4464 211.363 63.4464C209.008 63.4464 207.377 62.8069 206.191 61.2666L208.274 59.8345C208.99 60.7262 209.805 61.1676 211.191 61.1676C212.748 61.1676 213.274 60.492 213.274 59.6814C213.274 58.7536 212.712 58.2312 210.529 57.6728C207.885 56.9792 206.562 55.7182 206.562 53.5204C206.562 51.3227 207.966 49.7734 211.154 49.7734C213.292 49.7734 214.904 50.485 215.855 51.9532L213.817 53.4033V53.3943Z" fill="white"/>
<path d="M18.5495 22.761L1.44918 35.254C0.778933 35.7403 0 35.0378 0 33.9479V13.9609C0 13.4025 0.217377 12.8981 0.552499 12.6549L17.6528 0.152872C18.323 -0.333517 19.102 0.378052 19.102 1.46792V21.4549C19.102 22.0134 18.8846 22.5178 18.5495 22.761ZM95.519 49.3682V29.3813C95.519 28.2914 94.731 27.5798 94.0698 28.0752L76.9695 40.5682C76.6344 40.8204 76.417 41.3248 76.417 41.8833V61.8703C76.417 62.9601 77.205 63.6717 77.8661 63.1763L94.9665 50.6833C95.3016 50.4401 95.519 49.9267 95.519 49.3773M57.315 21.4639V1.46792C57.315 0.378052 56.527 -0.333517 55.8658 0.152872L0.552499 40.5682C0.217377 40.8204 0 41.3248 0 41.8833V61.8703C0 62.9601 0.787991 63.6717 1.44918 63.1763L56.7625 22.761C57.0976 22.5178 57.315 22.0044 57.315 21.4549M95.519 21.4549V1.46792C95.519 0.378052 94.731 -0.333517 94.0698 0.152872L38.7655 40.5592C38.4213 40.8114 38.213 41.3158 38.213 41.8743V61.8612C38.213 62.9511 39.001 63.6627 39.6622 63.1673L94.9665 22.761C95.3016 22.5178 95.519 22.0044 95.519 21.4549Z" fill="#89D2D6"/>
<path d="M12.0372 77.9665C10.9504 78.1196 10.8507 78.2097 10.6877 79.3176C10.3979 81.2541 10.1805 82.7944 9.9631 84.5327C9.79101 85.9018 9.81818 85.9739 10.896 86.145L10.8598 86.3342H7.29118L7.32741 86.145C8.34183 86.0009 8.41429 85.8748 8.62261 84.5327C8.91245 82.6683 9.16605 80.9209 9.44683 79.0924H9.41966C8.04294 81.4072 6.42167 84.1274 5.11741 86.3972H4.95438C4.55585 84.1725 3.90372 81.3442 3.43274 79.2275H3.40557L2.54512 82.6592C2.19188 84.0374 2.05602 84.7309 1.98356 85.1182C1.86582 85.8028 1.90205 86.0189 3.00704 86.154L2.97082 86.3432H0L0.0362295 86.154C0.987253 86.0189 1.11406 85.8928 1.39483 85.1723C1.54881 84.7849 1.87487 83.7041 2.24623 82.317L3.10668 79.1645C3.315 78.4078 3.27877 78.1466 2.03791 77.9665L2.07414 77.7773H4.35659C4.80946 79.7769 5.46159 82.2719 5.93257 84.2896L9.88158 77.7773H12.0735L12.0191 77.9665H12.0372Z" fill="white"/>
<path d="M13.115 86.4965C12.481 86.4965 11.7021 86.1362 11.7021 84.641C11.7021 83.4521 12.1912 82.146 13.1422 81.3714C13.6494 80.9481 14.4102 80.6328 14.9718 80.6328C15.6602 80.6328 15.959 81.0922 15.959 81.5876C15.959 82.7405 14.2019 83.326 12.9611 83.6142C12.9339 83.8484 12.9339 84.0556 12.9339 84.1366C12.9339 84.9563 13.1784 85.7219 13.9393 85.7219C14.4374 85.7219 14.999 85.4517 15.5968 84.8212L15.7054 84.9923C14.7725 86.1272 13.8125 86.4965 13.1241 86.4965M13.0063 83.308C14.5008 83.0558 14.8903 82.3352 14.8903 81.6957C14.8903 81.3264 14.691 81.0562 14.3378 81.0562C13.8487 81.0562 13.2509 81.5515 13.0063 83.308Z" fill="white"/>
<path d="M22.0999 85.1636C21.4025 86.0913 20.6055 86.4966 20.2251 86.4966C19.8084 86.4966 19.6816 86.1634 19.9171 85.0555L20.0801 84.3349C19.2106 85.6229 18.1328 86.4966 17.4263 86.4966C16.9372 86.4966 16.5297 86.0193 16.5297 84.9474C16.5297 83.7044 17.0459 82.3083 17.9336 81.5427C18.6038 80.9482 19.6363 80.6329 20.1073 80.6329C20.3519 80.6329 20.5964 80.66 20.841 80.723L21.312 78.3091C21.4206 77.7326 21.3482 77.7056 20.8047 77.6155C20.696 77.6155 20.5874 77.5975 20.4968 77.5885L20.533 77.4264C21.1217 77.3633 21.8735 77.2102 22.2811 77.0661C22.4985 76.994 22.6253 76.958 22.6977 76.958C22.7883 76.958 22.8155 77.0391 22.7521 77.3183C22.1815 79.8043 21.4116 83.4882 21.1127 85.1005C21.0493 85.4608 21.0855 85.5869 21.2033 85.5869C21.3301 85.5869 21.629 85.4248 22.0094 85.0014L22.1181 85.1636H22.0999ZM19.899 84.1458C20.1526 83.7675 20.2432 83.4162 20.3428 82.9658L20.687 81.3805C20.4696 81.1373 19.9986 81.0113 19.6092 81.0113C18.3955 81.0113 17.8068 83.4342 17.8068 84.7312C17.8068 85.3527 17.9607 85.659 18.2324 85.659C18.6491 85.659 19.2559 85.1366 19.9081 84.1368" fill="white"/>
<path d="M25.2972 85.1811C24.5907 86.1089 23.8299 86.5052 23.4223 86.5052C23.0148 86.5052 22.9151 86.1089 23.1597 85.1271C23.4586 83.8931 23.6578 83.1095 23.8843 82.1277C23.9839 81.6863 23.9839 81.5242 23.839 81.5242C23.685 81.5242 23.3771 81.7584 23.06 82.0737L22.9514 81.9025C23.5401 81.227 24.4096 80.6415 24.8715 80.6415C25.2882 80.6415 25.2791 81.0829 25.0255 82.1817C24.79 83.1725 24.5545 84.1543 24.3281 85.1361C24.2466 85.4784 24.3009 85.5955 24.4096 85.5955C24.5364 85.5955 24.8172 85.4424 25.1976 85.028L25.2972 85.1902V85.1811ZM25.6414 78.5068C25.6414 78.9301 25.3516 79.2994 24.9621 79.2994C24.6179 79.2994 24.4005 79.0562 24.4005 78.696C24.4005 78.3357 24.6541 77.9033 25.1251 77.9033C25.4784 77.9033 25.6414 78.1825 25.6414 78.4978" fill="white"/>
<path d="M30.1067 85.0641C29.3187 86.0279 28.3858 86.5053 27.625 86.5053C26.7917 86.5053 26.212 85.8568 26.212 84.6498C26.212 83.605 26.6468 82.353 27.4891 81.5784C28.0325 81.083 28.8568 80.6416 29.5179 80.6416C30.0433 80.6416 30.4509 80.8848 30.4509 81.2181C30.4509 81.4252 30.3059 81.7135 30.0342 81.8666C29.8712 81.9657 29.7444 81.9206 29.6447 81.7495C29.3821 81.3352 29.1285 81.119 28.7662 81.119C28.0869 81.119 27.4982 82.4611 27.4982 84.3075C27.4982 85.3434 27.8967 85.7667 28.422 85.7667C29.0379 85.7667 29.5632 85.3614 30.0161 84.893L30.1067 85.0731V85.0641Z" fill="white"/>
<path d="M36.2928 85.1905C35.5954 86.1092 34.9071 86.4965 34.4814 86.4965C34.0828 86.4965 33.9923 86.0822 34.2096 84.9653L34.3365 84.2807C33.8111 85.1094 33.313 85.5598 32.9416 85.893C32.4435 86.3164 32.0993 86.5055 31.7189 86.5055C31.2117 86.5055 30.8947 85.92 30.8947 85.0373C30.8947 83.7943 31.4834 82.4613 32.3438 81.6777C32.9326 81.1462 33.8926 80.6328 34.8165 80.6328C35.3418 80.6328 35.9939 80.804 36.2385 80.849C35.9758 81.7767 35.6317 83.4431 35.3237 85.0914C35.2603 85.4517 35.2965 85.5778 35.4233 85.5778C35.5592 85.5778 35.8037 85.4337 36.1932 85.0193L36.2928 85.1815V85.1905ZM33.8836 84.4969C34.2278 84.0195 34.427 83.5962 34.5538 83.0828C34.6897 82.5423 34.8799 81.6236 34.9433 81.2633C34.7531 81.1642 34.427 81.0832 34.0013 81.0832C32.7876 81.0832 32.1627 83.2809 32.1627 84.7491C32.1627 85.4066 32.3529 85.6138 32.5521 85.6138C32.8782 85.6138 33.2949 85.3076 33.8745 84.5059" fill="white"/>
<path d="M39.4811 85.1632C38.7746 86.091 38.0319 86.4963 37.6334 86.4963C37.2348 86.4963 37.1171 86.127 37.3163 85.1723C37.7511 82.9655 38.2945 80.3804 38.6931 78.3448C38.8199 77.7413 38.7474 77.7143 38.213 77.5972C38.1043 77.5792 38.0409 77.5792 37.9504 77.5612L37.9866 77.39C38.6659 77.318 39.2818 77.1829 39.6803 77.0297C39.8705 76.9577 39.9973 76.9307 40.0607 76.9307C40.1604 76.9307 40.1513 77.0658 40.0879 77.363C39.5626 79.876 38.9014 83.0105 38.4938 85.1092C38.4213 85.4515 38.4757 85.5776 38.5844 85.5776C38.7112 85.5776 39.0101 85.4154 39.3905 84.9921L39.4901 85.1452L39.4811 85.1632Z" fill="white"/>
<path d="M47.1798 77.9665C46.1473 78.1196 46.0567 78.2367 45.8484 79.3266L44.8068 84.7759C44.5803 85.9018 44.6347 85.9919 45.6853 86.145L45.6491 86.3342H42.1167L42.153 86.145C43.1312 86.0009 43.2127 85.9109 43.4482 84.7759L44.5079 79.3266C44.7253 78.2187 44.6618 78.1106 43.6021 77.9665L43.6384 77.7773H47.207L47.1707 77.9665H47.1798Z" fill="white"/>
<path d="M52.3063 85.2167C51.6089 86.0994 50.9114 86.4957 50.4586 86.4957C50.06 86.4957 49.9242 86.1805 50.1597 85.1987C50.3861 84.2079 50.5854 83.3612 50.8118 82.4065C50.9658 81.6859 50.9296 81.4247 50.6397 81.4247C50.1325 81.4247 49.2449 82.3704 48.7467 83.2531C48.4569 83.7485 48.3935 84.0728 48.2939 84.4601C48.158 85.0096 48.0131 85.7121 47.9135 86.2255C47.533 86.2706 47.0802 86.3786 46.7632 86.4687L46.6907 86.3967C46.9715 85.1627 47.361 83.5864 47.687 82.1092C47.7866 81.6679 47.7776 81.5328 47.6327 81.5328C47.4696 81.5328 47.1707 81.758 46.8628 82.0642L46.745 81.8931C47.361 81.1004 48.1218 80.623 48.5475 80.623C48.9913 80.623 49.0366 81.0644 48.7739 82.2443L48.5928 83.019C49.417 81.7129 50.6669 80.623 51.5183 80.623C51.9893 80.623 52.3063 80.8572 51.9259 82.5326C51.7175 83.4063 51.5455 84.2079 51.3552 85.0636C51.2647 85.4509 51.3009 85.595 51.4186 85.595C51.5364 85.595 51.8262 85.4509 52.2157 85.0276L52.3153 85.2077L52.3063 85.2167Z" fill="white"/>
<path d="M58.8457 85.2167C58.1483 86.0994 57.4509 86.4957 56.998 86.4957C56.5995 86.4957 56.4636 86.1805 56.6991 85.1987C56.9255 84.2079 57.1248 83.3612 57.3512 82.4065C57.5052 81.6859 57.469 81.4247 57.1791 81.4247C56.6719 81.4247 55.7843 82.3704 55.2771 83.2531C54.9873 83.7485 54.9239 84.0728 54.8242 84.4601C54.6884 85.0096 54.5434 85.7121 54.4438 86.2255C54.0634 86.2706 53.6105 86.3786 53.2935 86.4687L53.2211 86.3967C53.5018 85.1627 53.8913 83.5864 54.2174 82.1092C54.317 81.6679 54.308 81.5328 54.163 81.5328C54 81.5328 53.7011 81.758 53.3932 82.0642L53.2754 81.8931C53.8913 81.1004 54.6521 80.623 55.0778 80.623C55.5216 80.623 55.5669 81.0644 55.3043 82.2443L55.1231 83.019C55.9473 81.7129 57.1973 80.623 58.0486 80.623C58.5196 80.623 58.8366 80.8572 58.4562 82.5326C58.2479 83.4063 58.0758 84.2079 57.8856 85.0636C57.795 85.4509 57.8313 85.595 57.949 85.595C58.0668 85.595 58.3566 85.4509 58.7461 85.0276L58.8457 85.2077V85.2167Z" fill="white"/>
<path d="M64.8236 82.5331C64.8236 83.9563 64.108 85.3614 62.9306 86.0639C62.4868 86.3342 62.0158 86.4963 61.4723 86.4963C60.2043 86.4963 59.7514 85.5776 59.7514 84.5778C59.7514 82.9024 60.6934 81.5423 61.8346 80.9659C62.2513 80.7677 62.6951 80.6416 63.1298 80.6416C64.2258 80.6416 64.8145 81.4162 64.8145 82.5421M61.0195 84.5417C61.0195 85.6406 61.427 86.136 61.9433 86.136C63.1842 86.136 63.5374 83.5599 63.5374 82.5601C63.5374 81.4703 63.1661 80.9929 62.6679 80.9929C61.427 80.9929 61.0195 83.4609 61.0195 84.5417Z" fill="white"/>
<path d="M65.4938 81.9389C65.9466 81.3174 66.6803 80.6328 67.1603 80.6328C67.4864 80.6328 67.6585 81.0652 67.7128 82.056C67.7672 82.9567 67.8125 84.0105 67.8306 85.1995C68.4918 84.4519 69.633 83.0377 69.6511 82.2541C69.6511 81.9569 69.5696 81.6686 69.4428 81.4345C69.4066 81.3624 69.3884 81.2813 69.4337 81.1913C69.5243 80.9571 69.9138 80.6328 70.2217 80.6328C70.5025 80.6328 70.6746 80.921 70.6655 81.3804C70.6655 81.7407 70.5568 82.2811 69.9138 83.1638C69.1077 84.2357 67.6223 85.866 66.9792 86.5055H66.7527C66.7075 85.2265 66.6712 83.9114 66.5716 82.7585C66.5082 81.9028 66.4357 81.5696 66.2727 81.5696C66.155 81.5696 65.9285 81.7317 65.6025 82.11L65.4938 81.9479V81.9389Z" fill="white"/>
<path d="M76.3989 85.1905C75.7014 86.1092 75.0131 86.4965 74.5874 86.4965C74.1617 86.4965 74.0983 86.0822 74.3157 84.9653L74.4425 84.2807C73.9171 85.1094 73.419 85.5598 73.0476 85.893C72.5495 86.3164 72.2053 86.5055 71.8249 86.5055C71.3177 86.5055 70.9916 85.92 70.9916 85.0373C70.9916 83.7943 71.5803 82.4613 72.4408 81.6777C73.0295 81.1462 73.9805 80.6328 74.9134 80.6328C75.4388 80.6328 76.0909 80.804 76.3355 80.849C76.0728 81.7767 75.7286 83.4431 75.4207 85.0914C75.3573 85.4517 75.3935 85.5778 75.5203 85.5778C75.6561 85.5778 75.9007 85.4337 76.2902 85.0193L76.3898 85.1815L76.3989 85.1905ZM73.9896 84.4969C74.3338 84.0195 74.533 83.5962 74.6598 83.0828C74.7957 82.5423 74.9859 81.6236 75.0493 81.2633C74.8591 81.1642 74.5421 81.0832 74.1073 81.0832C72.8937 81.0832 72.2687 83.2809 72.2687 84.7491C72.2687 85.4066 72.4589 85.6138 72.6582 85.6138C72.9842 85.6138 73.4009 85.3076 73.9805 84.5059" fill="white"/>
<path d="M80.6921 81.1367C80.2935 81.1457 79.9222 81.1547 79.5146 81.1637C79.0708 83.2804 78.8081 84.5594 78.7538 84.8297C78.6542 85.4151 78.6904 85.6313 78.8806 85.6313C79.1342 85.6313 79.4603 85.3971 79.9041 84.9377L80.0037 85.0728C79.5599 85.6943 78.7176 86.487 78.0292 86.487C77.5129 86.487 77.3046 86.0817 77.6307 84.5324L78.3462 81.1547H77.4042L77.3771 81.0827L77.676 80.7674H78.4277L78.7176 79.4253C79.0708 79.2722 79.6052 78.966 79.9765 78.6777L80.0852 78.7228C79.9312 79.2542 79.7501 80.0648 79.5871 80.7584H80.8913L80.683 81.1097L80.6921 81.1367Z" fill="white"/>
<path d="M83.373 85.1811C82.6665 86.1089 81.9057 86.5052 81.4981 86.5052C81.0906 86.5052 80.9909 86.1089 81.2355 85.1271C81.5344 83.8931 81.7336 83.1095 81.9601 82.1277C82.0597 81.6863 82.0597 81.5242 81.9148 81.5242C81.7608 81.5242 81.4529 81.7584 81.1359 82.0737L81.0272 81.9025C81.6159 81.227 82.4854 80.6415 82.9473 80.6415C83.364 80.6415 83.3549 81.0829 83.1013 82.1817C82.8658 83.1725 82.6303 84.1543 82.4039 85.1361C82.3224 85.4784 82.3767 85.5955 82.4854 85.5955C82.6122 85.5955 82.893 85.4424 83.2734 85.028L83.373 85.1902V85.1811ZM83.7172 78.5068C83.7172 78.9301 83.4274 79.2994 83.0379 79.2994C82.6937 79.2994 82.4763 79.0562 82.4763 78.696C82.4763 78.3357 82.7299 77.9033 83.2009 77.9033C83.5542 77.9033 83.7172 78.1825 83.7172 78.4978" fill="white"/>
<path d="M89.3237 82.5331C89.3237 83.9563 88.6082 85.3614 87.4307 86.0639C86.9869 86.3342 86.516 86.4963 85.9635 86.4963C84.6954 86.4963 84.2426 85.5776 84.2426 84.5778C84.2426 82.9024 85.1845 81.5423 86.3257 80.9659C86.7424 80.7677 87.1862 80.6416 87.6209 80.6416C88.7169 80.6416 89.3056 81.4162 89.3056 82.5421M85.5106 84.5417C85.5106 85.6406 85.9182 86.136 86.4344 86.136C87.6753 86.136 88.0285 83.5599 88.0285 82.5601C88.0285 81.4703 87.6572 80.9929 87.159 80.9929C85.9091 80.9929 85.5106 83.4609 85.5106 84.5417Z" fill="white"/>
<path d="M95.8812 85.2167C95.1838 86.0994 94.4864 86.4957 94.0335 86.4957C93.635 86.4957 93.4992 86.1805 93.7347 85.1987C93.9611 84.2079 94.1603 83.3612 94.3868 82.4065C94.5408 81.6859 94.5045 81.4247 94.2147 81.4247C93.7075 81.4247 92.8199 82.3704 92.3217 83.2531C92.0319 83.7485 91.9685 84.0728 91.8688 84.4601C91.733 85.0096 91.5881 85.7121 91.4884 86.2255C91.108 86.2706 90.6551 86.3786 90.3381 86.4687L90.2657 86.3967C90.5465 85.1627 90.9359 83.5864 91.262 82.1092C91.3616 81.6679 91.3526 81.5328 91.2076 81.5328C91.0446 81.5328 90.7457 81.758 90.4378 82.0642L90.32 81.8931C90.9359 81.1004 91.6967 80.623 92.1224 80.623C92.5663 80.623 92.6115 81.0644 92.3489 82.2443L92.1677 83.019C92.992 81.7129 94.2419 80.623 95.0933 80.623C95.5642 80.623 95.8813 80.8572 95.5008 82.5326C95.2925 83.4063 95.1204 84.2079 94.9302 85.0636C94.8396 85.4509 94.8759 85.595 94.9936 85.595C95.1114 85.595 95.4012 85.4509 95.7907 85.0276L95.8903 85.2077L95.8812 85.2167Z" fill="white"/>
<path d="M100.337 81.3081C100.337 81.5243 100.075 81.8756 99.8846 81.9386C99.8031 81.9657 99.7488 81.9386 99.622 81.8035C99.3683 81.5153 99.0423 81.182 98.6438 81.182C98.2724 81.182 98.0007 81.4883 98.0007 81.8486C98.0007 82.2539 98.3358 82.5151 98.9064 82.9655C99.8212 83.695 99.9842 84.0103 99.9842 84.4967C99.9842 85.5235 98.3811 86.5053 97.5931 86.5053C97.0044 86.5053 96.3704 86.109 96.3704 85.5956C96.3704 85.3884 96.6602 84.9741 96.8866 84.9741C96.95 84.9651 96.9953 84.9921 97.0497 85.0551C97.5206 85.6676 97.9282 85.9288 98.3539 85.9288C98.7796 85.9288 99.0966 85.6226 99.0966 85.2533C99.0966 84.938 98.9245 84.6678 98.3358 84.1724C97.8377 83.7581 97.1946 83.3258 97.1946 82.6232C97.1946 82.2359 97.3486 81.7585 97.9735 81.2361C98.3449 80.9298 98.8792 80.6416 99.3321 80.6416C99.8574 80.6416 100.328 80.9388 100.328 81.3171" fill="white"/>
<path d="M108.679 85.1905C107.982 86.1092 107.294 86.4965 106.868 86.4965C106.442 86.4965 106.379 86.0822 106.587 84.9653L106.714 84.2807C106.189 85.1094 105.69 85.5598 105.319 85.893C104.821 86.3164 104.477 86.5055 104.096 86.5055C103.589 86.5055 103.263 85.92 103.263 85.0373C103.263 83.7943 103.852 82.4613 104.712 81.6777C105.301 81.1462 106.261 80.6328 107.185 80.6328C107.71 80.6328 108.362 80.804 108.607 80.849C108.353 81.7767 108 83.4431 107.692 85.0914C107.629 85.4517 107.665 85.5778 107.792 85.5778C107.928 85.5778 108.172 85.4337 108.562 85.0193L108.661 85.1815L108.679 85.1905ZM106.27 84.4969C106.614 84.0195 106.813 83.5962 106.94 83.0828C107.076 82.5423 107.266 81.6236 107.33 81.2633C107.14 81.1642 106.823 81.0832 106.388 81.0832C105.174 81.0832 104.54 83.2809 104.54 84.7491C104.54 85.4066 104.73 85.6138 104.939 85.6138C105.265 85.6138 105.681 85.3076 106.261 84.5059" fill="white"/>
<path d="M115.164 85.2167C114.467 86.0994 113.77 86.4957 113.317 86.4957C112.918 86.4957 112.782 86.1805 113.018 85.1987C113.244 84.2079 113.443 83.3612 113.67 82.4065C113.824 81.6859 113.788 81.4247 113.498 81.4247C112.991 81.4247 112.103 82.3704 111.596 83.2531C111.306 83.7485 111.243 84.0728 111.134 84.4601C110.998 85.0096 110.853 85.7121 110.753 86.2255C110.373 86.2706 109.92 86.3786 109.603 86.4687L109.531 86.3967C109.811 85.1627 110.201 83.5864 110.527 82.1092C110.627 81.6679 110.618 81.5328 110.473 81.5328C110.31 81.5328 110.011 81.758 109.703 82.0642L109.585 81.8931C110.201 81.1004 110.962 80.623 111.387 80.623C111.84 80.623 111.877 81.0644 111.614 82.2443L111.433 83.019C112.257 81.7129 113.507 80.623 114.358 80.623C114.829 80.623 115.146 80.8572 114.766 82.5326C114.558 83.4063 114.385 84.2079 114.195 85.0636C114.105 85.4509 114.141 85.595 114.259 85.595C114.376 85.595 114.666 85.4509 115.056 85.0276L115.155 85.2077L115.164 85.2167Z" fill="white"/>
<path d="M121.631 85.1636C120.934 86.0913 120.137 86.4966 119.756 86.4966C119.34 86.4966 119.213 86.1634 119.448 85.0555L119.612 84.3349C118.742 85.6229 117.664 86.4966 116.958 86.4966C116.469 86.4966 116.061 86.0193 116.061 84.9474C116.061 83.7044 116.577 82.3083 117.465 81.5427C118.135 80.9482 119.168 80.6329 119.639 80.6329C119.883 80.6329 120.128 80.66 120.372 80.723L120.843 78.3091C120.952 77.7326 120.88 77.7056 120.336 77.6155C120.227 77.6155 120.119 77.5975 120.028 77.5885L120.064 77.4264C120.653 77.3633 121.405 77.2102 121.812 77.0661C122.03 76.994 122.157 76.958 122.229 76.958C122.32 76.958 122.347 77.0391 122.283 77.3183C121.713 79.8043 120.943 83.4882 120.644 85.1005C120.581 85.4608 120.617 85.5869 120.735 85.5869C120.861 85.5869 121.16 85.4248 121.541 85.0014L121.649 85.1636H121.631ZM119.43 84.1458C119.684 83.7675 119.775 83.4162 119.874 82.9658L120.218 81.3805C120.001 81.1373 119.53 81.0113 119.141 81.0113C117.927 81.0113 117.338 83.4342 117.338 84.7312C117.338 85.3527 117.492 85.659 117.764 85.659C118.18 85.659 118.787 85.1366 119.439 84.1368" fill="white"/>
<path d="M134.203 77.966C133.315 78.1101 133.152 78.2452 132.971 78.9207C132.881 79.218 132.745 79.8304 132.455 81.2716L131.45 86.4507H131.142L127.075 79.29L126.414 82.7848C126.133 84.253 126.06 84.7033 125.997 85.1987C125.915 85.8202 125.997 85.9914 127.147 86.1355L127.111 86.3246H124.122L124.167 86.1355C125.037 86.0004 125.245 85.8473 125.417 85.2618C125.571 84.7664 125.689 84.253 125.979 82.8028L126.694 79.1819C126.731 79.0108 126.758 78.7586 126.595 78.4794C126.396 78.1461 126.115 78.011 125.535 77.9479L125.571 77.7588H127.7L131.459 84.226L132.038 81.2806C132.328 79.8214 132.391 79.3621 132.464 78.8937C132.564 78.2182 132.373 78.083 131.286 77.9479L131.332 77.7588H134.23L134.194 77.9479L134.203 77.966Z" fill="white"/>
<path d="M138.541 82.5331C138.541 83.9563 137.826 85.3614 136.657 86.0639C136.214 86.3342 135.743 86.4963 135.19 86.4963C133.922 86.4963 133.469 85.5776 133.469 84.5778C133.469 82.9024 134.411 81.5423 135.552 80.9659C135.969 80.7677 136.413 80.6416 136.848 80.6416C137.944 80.6416 138.532 81.4162 138.532 82.5421M134.737 84.5417C134.737 85.6406 135.145 86.136 135.661 86.136C136.902 86.136 137.255 83.5599 137.255 82.5601C137.255 81.4703 136.893 80.9929 136.386 80.9929C135.136 80.9929 134.737 83.4609 134.737 84.5417Z" fill="white"/>
<path d="M139.212 81.9389C139.665 81.3174 140.398 80.6328 140.878 80.6328C141.204 80.6328 141.376 81.0652 141.431 82.056C141.485 82.9567 141.53 84.0105 141.548 85.1995C142.21 84.4519 143.351 83.0377 143.369 82.2541C143.369 81.9569 143.287 81.6686 143.161 81.4345C143.124 81.3624 143.106 81.2813 143.152 81.1913C143.242 80.9571 143.632 80.6328 143.94 80.6328C144.22 80.6328 144.392 80.921 144.383 81.3804C144.383 81.7407 144.275 82.2811 143.632 83.1638C142.826 84.2357 141.34 85.866 140.697 86.5055H140.471C140.425 85.2265 140.389 83.9114 140.289 82.7585C140.226 81.9028 140.154 81.5696 139.991 81.5696C139.873 81.5696 139.646 81.7317 139.32 82.11L139.212 81.9479V81.9389Z" fill="white"/>
<path d="M146.24 86.4965C145.606 86.4965 144.827 86.1362 144.827 84.641C144.827 83.4521 145.316 82.146 146.267 81.3714C146.775 80.9481 147.535 80.6328 148.097 80.6328C148.785 80.6328 149.084 81.0922 149.084 81.5876C149.084 82.7405 147.327 83.326 146.086 83.6142C146.059 83.8484 146.059 84.0556 146.059 84.1366C146.059 84.9563 146.304 85.7219 147.064 85.7219C147.563 85.7219 148.124 85.4517 148.722 84.8212L148.831 84.9923C147.898 86.1272 146.938 86.4965 146.249 86.4965M146.132 83.308C147.626 83.0558 148.015 82.3352 148.015 81.6957C148.015 81.3264 147.816 81.0562 147.463 81.0562C146.965 81.0562 146.367 81.5515 146.132 83.308Z" fill="white"/>
<path d="M151.964 85.1632C151.258 86.091 150.515 86.4963 150.117 86.4963C149.718 86.4963 149.6 86.127 149.8 85.1723C150.234 82.9655 150.778 80.3804 151.176 78.3448C151.303 77.7413 151.231 77.7143 150.696 77.5972C150.588 77.5792 150.524 77.5792 150.434 77.5612L150.47 77.39C151.149 77.318 151.765 77.1829 152.164 77.0297C152.354 76.9577 152.481 76.9307 152.544 76.9307C152.644 76.9307 152.635 77.0658 152.571 77.363C152.046 79.876 151.385 83.0105 150.977 85.1092C150.905 85.4515 150.959 85.5776 151.068 85.5776C151.195 85.5776 151.493 85.4154 151.874 84.9921L151.974 85.1452L151.964 85.1632Z" fill="white"/>
<path d="M162.969 77.4893C162.851 77.9396 162.661 78.8944 162.562 79.642L162.353 79.66C162.344 79.4438 162.335 79.2637 162.335 79.0655C162.272 78.3359 162.127 78.1288 161.13 78.1288H160.08L158.803 84.7671C158.576 85.929 158.676 85.9921 159.853 86.1542L159.817 86.3433H155.968L156.013 86.1542C157.109 86.0281 157.218 85.947 157.453 84.7671L158.748 78.1288H157.933C156.964 78.1288 156.729 78.2188 156.403 78.6152C156.194 78.8584 156.004 79.2186 155.814 79.66L155.615 79.642C155.805 78.9845 156.022 78.1558 156.14 77.4983H156.303C156.448 77.7865 156.557 77.7865 156.919 77.7865H162.136C162.471 77.7865 162.571 77.7234 162.806 77.4983H162.978L162.969 77.4893Z" fill="white"/>
<path d="M162.67 86.4965C162.036 86.4965 161.257 86.1362 161.257 84.641C161.257 83.4521 161.746 82.146 162.697 81.3714C163.205 80.9481 163.965 80.6328 164.527 80.6328C165.215 80.6328 165.514 81.0922 165.514 81.5876C165.514 82.7405 163.757 83.326 162.516 83.6142C162.489 83.8484 162.489 84.0556 162.489 84.1366C162.489 84.9563 162.734 85.7219 163.494 85.7219C163.993 85.7219 164.554 85.4517 165.152 84.8212L165.261 84.9923C164.328 86.1272 163.368 86.4965 162.679 86.4965M162.562 83.308C164.056 83.0558 164.445 82.3352 164.445 81.6957C164.445 81.3264 164.246 81.0562 163.893 81.0562C163.404 81.0562 162.806 81.5515 162.562 83.308Z" fill="white"/>
<path d="M170.016 85.0641C169.228 86.0279 168.295 86.5053 167.534 86.5053C166.692 86.5053 166.121 85.8568 166.121 84.6498C166.121 83.605 166.556 82.353 167.398 81.5784C167.942 81.083 168.766 80.6416 169.427 80.6416C169.952 80.6416 170.36 80.8848 170.36 81.2181C170.36 81.4252 170.215 81.7135 169.943 81.8666C169.78 81.9657 169.653 81.9206 169.554 81.7495C169.291 81.3352 169.038 81.119 168.675 81.119C167.996 81.119 167.407 82.4611 167.407 84.3075C167.407 85.3434 167.806 85.7667 168.331 85.7667C168.947 85.7667 169.472 85.3614 169.925 84.893L170.016 85.0731V85.0641Z" fill="white"/>
<path d="M171.51 77.3717C172.09 77.2996 172.769 77.1555 173.177 77.0114C173.385 76.9394 173.521 76.9033 173.584 76.9033C173.675 76.9033 173.675 77.0474 173.612 77.3447C173.231 79.1821 172.796 81.1637 172.416 82.9472C173.313 81.515 174.544 80.6323 175.341 80.6413C175.84 80.6413 176.184 80.8665 175.812 82.5508C175.604 83.4245 175.396 84.3433 175.215 85.1269C175.133 85.4692 175.178 85.5773 175.296 85.5773C175.414 85.5773 175.695 85.4332 176.084 85.0368L176.184 85.19C175.486 86.0907 174.689 86.505 174.309 86.505C173.929 86.505 173.802 86.1988 174.037 85.217C174.264 84.2262 174.481 83.3525 174.707 82.3977C174.861 81.6862 174.798 81.3979 174.499 81.3979C174.11 81.3979 173.412 81.8123 172.642 83.1363C172.398 83.5597 172.28 84.046 172.18 84.4333C172.045 84.9918 171.882 85.7214 171.818 86.2438C171.402 86.2888 171.003 86.3879 170.632 86.496L170.577 86.4059C171.13 83.938 171.7 81.0827 172.235 78.3805C172.362 77.705 172.298 77.6239 171.746 77.5608C171.637 77.5518 171.601 77.5428 171.492 77.5338L171.528 77.3717H171.51Z" fill="white"/>
<path d="M182.714 85.2167C182.017 86.0994 181.319 86.4957 180.866 86.4957C180.468 86.4957 180.332 86.1805 180.568 85.1987C180.794 84.2079 180.993 83.3612 181.22 82.4065C181.374 81.6859 181.337 81.4247 181.048 81.4247C180.54 81.4247 179.653 82.3704 179.155 83.2531C178.865 83.7485 178.801 84.0728 178.693 84.4601C178.557 85.0096 178.412 85.7121 178.312 86.2255C177.932 86.2706 177.479 86.3786 177.162 86.4687L177.09 86.3967C177.37 85.1627 177.76 83.5864 178.086 82.1092C178.186 81.6679 178.176 81.5328 178.032 81.5328C177.868 81.5328 177.57 81.758 177.262 82.0642L177.144 81.8931C177.76 81.1004 178.521 80.623 178.946 80.623C179.39 80.623 179.435 81.0644 179.173 82.2443L178.992 83.019C179.816 81.7129 181.066 80.623 181.917 80.623C182.388 80.623 182.705 80.8572 182.325 82.5326C182.116 83.4063 181.944 84.2079 181.754 85.0636C181.664 85.4509 181.7 85.595 181.818 85.595C181.935 85.595 182.225 85.4509 182.615 85.0276L182.714 85.2077V85.2167Z" fill="white"/>
<path d="M188.692 82.5331C188.692 83.9563 187.977 85.3614 186.799 86.0639C186.355 86.3342 185.884 86.4963 185.332 86.4963C184.064 86.4963 183.611 85.5776 183.611 84.5778C183.611 82.9024 184.553 81.5423 185.694 80.9659C186.111 80.7677 186.555 80.6416 186.998 80.6416C188.103 80.6416 188.683 81.4162 188.683 82.5421M184.888 84.5417C184.888 85.6406 185.296 86.136 185.812 86.136C187.053 86.136 187.406 83.5599 187.406 82.5601C187.406 81.4703 187.035 80.9929 186.536 80.9929C185.296 80.9929 184.888 83.4609 184.888 84.5417Z" fill="white"/>
<path d="M191.953 85.1632C191.246 86.091 190.504 86.4963 190.105 86.4963C189.706 86.4963 189.589 86.127 189.788 85.1723C190.223 82.9655 190.766 80.3804 191.165 78.3448C191.292 77.7413 191.219 77.7143 190.685 77.5972C190.576 77.5792 190.513 77.5792 190.422 77.5612L190.458 77.39C191.138 77.318 191.753 77.1829 192.152 77.0297C192.342 76.9577 192.469 76.9307 192.532 76.9307C192.632 76.9307 192.623 77.0658 192.56 77.363C192.034 79.876 191.373 83.0105 190.965 85.1092C190.893 85.4515 190.947 85.5776 191.056 85.5776C191.183 85.5776 191.482 85.4154 191.862 84.9921L191.962 85.1452L191.953 85.1632Z" fill="white"/>
<path d="M197.813 82.5331C197.813 83.9563 197.097 85.3614 195.92 86.0639C195.476 86.3342 195.005 86.4963 194.453 86.4963C193.185 86.4963 192.732 85.5776 192.732 84.5778C192.732 82.9024 193.674 81.5423 194.815 80.9659C195.231 80.7677 195.675 80.6416 196.11 80.6416C197.206 80.6416 197.795 81.4162 197.795 82.5421M194 84.5417C194 85.6406 194.407 86.136 194.933 86.136C196.173 86.136 196.527 83.5599 196.527 82.5601C196.527 81.4703 196.155 80.9929 195.657 80.9929C194.416 80.9929 194.009 83.4609 194.009 84.5417" fill="white"/>
<path d="M200.349 84.9831C200.276 85.0641 200.122 85.2263 200.122 85.3974C200.122 85.6316 200.494 85.8478 201.227 86.2261C202.541 86.9106 202.976 87.397 202.976 87.9374C202.976 89.1174 201.028 90.0091 199.697 90.0091C198.447 90.0091 197.351 89.3696 197.351 88.5679C197.351 87.9104 198.356 87.325 199.624 86.6764C199.28 86.4603 199.108 86.2171 199.117 86.0009C199.117 85.7577 199.516 85.3794 200.113 84.9831H200.358H200.349ZM201.925 88.5499C201.925 88.2077 201.698 87.9464 201.327 87.6672C200.874 87.352 200.249 87.0547 199.814 86.8205C199.036 87.2619 198.51 87.7753 198.51 88.3338C198.51 89.1174 199.488 89.5767 200.331 89.5767C201.418 89.5767 201.934 89.1084 201.934 88.5589M198.918 83.5689C198.918 82.5151 199.516 81.5603 200.358 81.0469C200.784 80.7947 201.3 80.6416 201.744 80.6416C202.169 80.6416 202.505 80.7587 202.822 80.9929C203.519 81.0199 203.963 80.8668 204.198 80.6866L204.289 80.8217C203.863 81.4162 203.338 81.5243 203.066 81.5423C203.111 81.7045 203.139 81.8846 203.139 82.1368C203.139 83.2267 202.559 83.9472 202.088 84.3346C201.544 84.7759 200.738 85.0732 200.249 85.0641C199.389 85.0551 198.909 84.4156 198.909 83.5689M202.006 82.0107C202.006 81.3352 201.798 80.9659 201.336 80.9659C200.602 80.9659 200.068 82.335 200.068 83.677C200.068 84.3256 200.295 84.7039 200.738 84.7039C201.4 84.7039 202.006 83.5329 202.006 82.0107Z" fill="white"/>
<path d="M206.734 85.1811C206.028 86.1089 205.267 86.5052 204.859 86.5052C204.452 86.5052 204.352 86.1089 204.597 85.1271C204.896 83.8931 205.095 83.1095 205.321 82.1277C205.421 81.6863 205.421 81.5242 205.276 81.5242C205.122 81.5242 204.814 81.7584 204.497 82.0737L204.388 81.9025C204.977 81.227 205.847 80.6415 206.309 80.6415C206.725 80.6415 206.716 81.0829 206.472 82.1817C206.236 83.1725 206.001 84.1543 205.774 85.1361C205.693 85.4784 205.747 85.5955 205.856 85.5955C205.983 85.5955 206.263 85.4424 206.644 85.028L206.743 85.1902L206.734 85.1811ZM207.079 78.5068C207.079 78.9301 206.798 79.2994 206.399 79.2994C206.055 79.2994 205.838 79.0562 205.838 78.696C205.838 78.3357 206.091 77.9033 206.562 77.9033C206.915 77.9033 207.079 78.1825 207.079 78.4978" fill="white"/>
<path d="M209.026 86.4965C208.392 86.4965 207.613 86.1362 207.613 84.641C207.613 83.4521 208.102 82.146 209.053 81.3714C209.56 80.9481 210.321 80.6328 210.883 80.6328C211.571 80.6328 211.87 81.0922 211.87 81.5876C211.87 82.7405 210.113 83.326 208.872 83.6142C208.845 83.8484 208.845 84.0556 208.845 84.1366C208.845 84.9563 209.089 85.7219 209.85 85.7219C210.348 85.7219 210.91 85.4517 211.508 84.8212L211.616 84.9923C210.683 86.1272 209.723 86.4965 209.035 86.4965M208.917 83.308C210.412 83.0558 210.801 82.3352 210.801 81.6957C210.801 81.3264 210.602 81.0562 210.249 81.0562C209.759 81.0562 209.162 81.5515 208.917 83.308Z" fill="white"/>
<path d="M216 81.3081C216 81.5243 215.737 81.8756 215.547 81.9386C215.466 81.9657 215.411 81.9386 215.284 81.8035C215.031 81.5153 214.696 81.182 214.306 81.182C213.935 81.182 213.663 81.4883 213.663 81.8486C213.663 82.2539 213.998 82.5151 214.569 82.9655C215.484 83.695 215.647 84.0103 215.647 84.4967C215.647 85.5235 214.044 86.5053 213.256 86.5053C212.667 86.5053 212.033 86.109 212.033 85.5956C212.033 85.3884 212.323 84.9741 212.549 84.9741C212.613 84.9651 212.658 84.9921 212.712 85.0551C213.183 85.6676 213.591 85.9288 214.016 85.9288C214.442 85.9288 214.759 85.6226 214.759 85.2533C214.759 84.938 214.587 84.6678 213.998 84.1724C213.5 83.7581 212.857 83.3258 212.857 82.6232C212.857 82.2359 213.02 81.7585 213.636 81.2361C214.007 80.9298 214.542 80.6416 215.004 80.6416C215.538 80.6416 216 80.9388 216 81.3171" fill="white"/>
</g>
<defs>
<clipPath id="clip0_388_1204">
<rect width="216" height="90" fill="white"/>
</clipPath>
</defs>
</svg>
